<?xml version="1.0" ?><!DOCTYPE svg  PUBLIC '-//W3C//DTD SVG 1.1//EN'  'http://www.w3.org/Graphics/SVG/1.1/DTD/svg11.dtd'><svg enable-background="new 0 0 512 512" id="Layer_1" version="1.1" viewBox="0 0 512 512" xml:space="preserve" xmlns="http://www.w3.org/2000/svg" xmlns:xlink="http://www.w3.org/1999/xlink"><g><path d="M257.2,67.9c82.1,0,164.3,0,246.4,0c6.4,0,6.4,0,6.4,6.6c0,121.8,0,243.6,0.1,365.4c0,5.2-1.4,6.3-6.4,6.2   C339.3,446,174.8,446,10.4,446C4,446,4,446,4,439.5C4,317.8,4,196.2,4,74.6c0-6.7,0-6.7,6.8-6.7C92.9,67.9,175,67.9,257.2,67.9z    M259.6,441.9c57.3,0,114.6,0,171.9,0.1c4.3,0,5.7-0.9,5.6-5.4c-0.3-17.2-1.1-34.4,0.2-51.5c0.9-12.7-3.6-19.7-14-26.8   c-41.9-28.6-83-58.3-124.3-87.8c-3.5-2.5-6.1-3.1-9.3,0.4c-8.7,9.2-19.1,16.5-28.3,25.3c-2.1,2.1-3.6,2-5.9,0.1   c-11.4-9.7-23-19.1-34.3-29c-2.9-2.5-4.5-2.1-7.1,0.1c-6.6,5.6-13.3,11.1-20,16.5c-17.6,14.2-35.3,28.3-52.9,42.5   c-18.3,14.7-36.4,29.6-54.8,44.2c-2.5,2-3.6,3.6-3.6,6.8c0.1,19.7,0.2,39.3,0,59c-0.1,4.8,1.6,5.7,6,5.7   C145.6,441.9,202.6,441.9,259.6,441.9z M105.9,71.8c-0.3,0.5-0.6,1-0.8,1.5c1.4,1.1,3,2.1,4.2,3.4c33.4,33.2,66.6,66.8,100.4,99.6   c14.7,14.3,29.1,28.8,43.4,43.4c2.7,2.8,4.7,2.9,7.5,0.3c13.5-12.3,27.3-24.3,40.5-36.9c16-15.1,31.3-30.9,47.1-46.2   c20.6-19.9,40.5-40.5,61.3-60.2c1.2-1.2,3.7-2.2,2.8-4.2c-0.7-1.6-3-0.7-4.6-0.7c-99-0.1-198-0.2-297-0.2   C109.1,71.8,107.5,71.8,105.9,71.8z M436.7,144.7c-1.7,0-2.6,1.1-3.5,1.9c-17.9,15.4-35.7,30.9-53.6,46.4   c-14.8,12.9-29.6,25.7-44.4,38.6c-10.2,8.8-20.4,17.7-30.6,26.5c-2,1.7-2.2,2.9,0.3,4.5c4.2,2.7,8.2,5.7,12.3,8.5   c30.7,21.5,61.3,42.9,92,64.3c8.9,6.2,17.9,12.4,27.5,19.1C436.7,284,436.7,214.4,436.7,144.7z M83.1,358.9   c10.6-8.4,20.8-16.3,30.9-24.4c30-24,60-48,90-72c6-4.7,6.2-4.6,0.2-9.7c-35.6-30.3-71.2-60.6-106.9-90.7   c-4.6-3.8-8.5-8.5-14.2-11.5C83.1,220.1,83.1,289.1,83.1,358.9z" fill="#A7A7A7"/></g></svg>